<svg width="439" height="126" viewBox="0 0 439 126" fill="none" xmlns="http://www.w3.org/2000/svg">
<path d="M87.5886 93.7661L38.0213 125.61L0 108.965L49.5674 77.1211L87.5886 93.7661Z" fill="#FEFFFF"/>
<path d="M50.6951 19.6112C61.898 19.6112 70.9927 28.7304 70.9927 39.9334C70.9927 43.4389 70.1347 46.7483 68.4432 49.788C64.8642 56.2352 58.0738 60.231 50.6951 60.231C47.6308 60.231 44.6891 59.5691 41.9436 58.2699C34.908 54.9114 30.3729 47.7288 30.3729 39.9334C30.3729 28.7304 39.4922 19.6112 50.6951 19.6112ZM50.6951 0C28.6324 0 10.7617 17.8707 10.7617 39.9334C10.7617 55.8185 20.0525 69.5463 33.4862 75.969C38.6832 78.4694 44.5175 79.8422 50.6706 79.8422C65.6731 79.8422 78.7636 71.5565 85.554 59.2994C88.7654 53.5632 90.5794 46.9689 90.5794 39.9334C90.5794 17.8952 72.7087 0 50.6706 0H50.6951Z" fill="#FEFFFF"/>
<path d="M101.953 93.0311V17.1602H117.863V93.0556H101.953V93.0311Z" fill="#FEFFFF"/>
<path d="M160.345 88.3734H159.291C157.6 90.2119 155.663 91.7318 153.506 92.933C151.348 94.1342 148.578 94.747 145.195 94.747C142.572 94.747 140.121 94.3303 137.841 93.4723C135.561 92.6143 133.527 91.4131 131.811 89.8687C130.07 88.3243 128.722 86.4368 127.717 84.255C126.736 82.0733 126.246 79.6219 126.246 76.9498C126.246 74.2778 126.785 71.949 127.84 69.7917C128.894 67.6345 130.34 65.7959 132.179 64.227C134.017 62.6827 136.174 61.4815 138.699 60.6235C141.224 59.7655 143.945 59.3488 146.911 59.3488C150.098 59.3488 152.721 59.5694 154.805 59.9861C156.889 60.4029 158.752 60.9177 160.37 61.4815V60.1087C160.37 57.8534 159.438 55.9168 157.551 54.3234C155.663 52.73 153.162 51.9455 149.976 51.9455C145.392 51.9455 141.42 53.8086 138.111 57.5592L127.3 49.9354C130.266 46.4053 133.723 43.7823 137.645 42.0418C141.567 40.3013 145.882 39.4434 150.638 39.4434C159.119 39.4434 165.518 41.3309 169.832 45.1061C174.147 48.8813 176.304 54.6175 176.304 62.3395V93.0801H160.419V88.4224L160.345 88.3734ZM160.345 72.5863C158.727 71.949 157.109 71.4587 155.516 71.091C153.922 70.7233 152.28 70.5517 150.589 70.5517C147.769 70.5517 145.637 71.14 144.239 72.2922C142.818 73.4688 142.107 74.9642 142.107 76.8027C142.107 78.6413 142.769 80.1121 144.117 81.1908C145.465 82.2694 147.23 82.8332 149.412 82.8332C151.177 82.8332 152.746 82.539 154.119 81.9262C155.491 81.3133 156.644 80.5289 157.575 79.5483C158.482 78.5678 159.193 77.4401 159.634 76.2144C160.1 74.9887 160.321 73.763 160.321 72.5618L160.345 72.5863Z" fill="#FEFFFF"/>
<path d="M208.147 94.7228C204.543 94.7228 201.357 94.3061 198.611 93.4481C195.865 92.5901 193.463 91.4869 191.453 90.1142C189.443 88.7414 187.751 87.148 186.428 85.3339C185.079 83.5444 184.05 81.7059 183.363 79.8673L197.679 73.8368C198.66 76.2392 200.033 77.9797 201.822 79.0828C203.587 80.186 205.696 80.7253 208.171 80.7253C210.28 80.7253 211.922 80.3821 213.099 79.7202C214.275 79.0583 214.839 78.1758 214.839 77.1217C214.839 75.9205 214.275 74.989 213.148 74.3026C212.02 73.6407 210.206 73.0034 207.755 72.4395L200.646 70.9687C198.954 70.6255 197.214 70.0372 195.449 69.2772C193.684 68.4928 192.066 67.4877 190.57 66.213C189.075 64.9383 187.874 63.4429 186.967 61.7024C186.035 59.9619 185.594 57.9763 185.594 55.721C185.594 53.2451 186.133 51.0143 187.237 48.9796C188.34 46.9695 189.835 45.2535 191.747 43.8317C193.659 42.4099 195.914 41.3312 198.537 40.5468C201.16 39.7623 204.004 39.3701 207.117 39.3701C212.486 39.3701 217.119 40.3016 220.992 42.1892C224.866 44.0523 227.807 47.1901 229.793 51.5781L216.114 57.1918C215.182 55.3533 213.908 54.005 212.241 53.1715C210.574 52.3135 208.907 51.8968 207.215 51.8968C205.377 51.8968 203.906 52.2155 202.754 52.8528C201.626 53.4902 201.062 54.2746 201.062 55.1817C201.062 56.1622 201.651 56.9712 202.803 57.5595C203.98 58.1724 205.401 58.6627 207.093 59.1039L215.158 61.016C220.453 62.2907 224.424 64.3499 227.023 67.169C229.646 69.9881 230.945 73.322 230.945 77.1217C230.945 79.4506 230.406 81.6813 229.303 83.7895C228.199 85.9223 226.655 87.7853 224.645 89.4033C222.635 91.0212 220.232 92.3204 217.438 93.2765C214.643 94.2325 211.554 94.6983 208.171 94.6983L208.147 94.7228Z" fill="#FEFFFF"/>
<path d="M239.402 17.1602H255.312V37.0901L254.258 47.6801H255.312C256.93 45.1307 259.087 43.1205 261.784 41.6497C264.456 40.1543 267.495 39.4189 270.903 39.4189C277.473 39.4189 282.375 41.4045 285.636 45.3513C288.896 49.2981 290.514 54.8873 290.514 62.0944V93.0311H274.629V63.8839C274.629 61.0648 273.967 58.736 272.619 56.9464C271.271 55.1324 269.187 54.2499 266.368 54.2499C262.764 54.2499 260.019 55.6227 258.156 58.3928C256.293 61.1383 255.336 64.7419 255.336 69.2034V93.0556H239.427V17.1602H239.402Z" fill="#FEFFFF"/>
<path d="M303.629 17.1602H330.447C336.527 17.1602 341.993 18.0917 346.872 19.9057C351.75 21.7443 355.868 24.3183 359.276 27.6522C362.659 30.9861 365.257 34.9573 367.071 39.6395C368.885 44.2972 369.768 49.4696 369.768 55.1079C369.768 60.7461 368.861 65.9186 367.071 70.5762C365.282 75.2339 362.683 79.2297 359.276 82.5636C355.893 85.8975 351.75 88.4715 346.872 90.31C341.993 92.1486 336.527 93.0556 330.447 93.0556H303.629V17.1602ZM329.589 77.3421C333.683 77.3421 337.213 76.8028 340.179 75.6997C343.145 74.5965 345.597 73.0767 347.534 71.091C349.47 69.1054 350.916 66.752 351.823 64.031C352.755 61.3099 353.196 58.3192 353.196 55.0834C353.196 51.8475 352.73 48.8568 351.823 46.1357C350.916 43.4147 349.47 41.0613 347.534 39.0757C345.597 37.0901 343.145 35.5702 340.179 34.4671C337.213 33.3639 333.683 32.8246 329.589 32.8246H320.151V77.3421H329.589Z" fill="#FEFFFF"/>
<path d="M381.314 17.1602H412.153C415.536 17.1602 418.698 17.6995 421.64 18.7536C424.582 19.8077 427.107 21.2295 429.215 22.9945C431.323 24.7595 432.99 26.8187 434.191 29.1965C435.392 31.5744 436.005 34.0258 436.005 36.5508C436.005 40.7181 435 44.1746 432.99 46.9447C430.98 49.7148 428.602 51.7495 425.832 53.0977V54.1518C429.852 55.6227 433.015 57.9025 435.319 60.9422C437.623 63.982 438.775 67.7326 438.775 72.1696C438.775 75.43 438.113 78.3227 436.814 80.9211C435.515 83.4951 433.701 85.7014 431.397 87.4909C429.092 89.2804 426.371 90.6777 423.233 91.6338C420.096 92.5898 416.688 93.0556 413.011 93.0556H381.314V17.1602ZM410.56 47.2634C413.526 47.2634 415.83 46.6015 417.448 45.2532C419.066 43.905 419.875 41.9929 419.875 39.5415C419.875 37.0901 419.066 35.1535 417.448 33.8297C415.83 32.4814 413.673 31.8195 410.976 31.8195H397.837V47.2879H410.56V47.2634ZM411.932 78.2001C418.772 78.2001 422.204 75.381 422.204 69.7182C422.204 64.0555 418.625 61.2364 411.491 61.2364H397.812V78.2001H411.908H411.932Z" fill="#FEFFFF"/>
</svg>
