<svg width="612" height="330" viewBox="0 0 612 330" fill="none" xmlns="http://www.w3.org/2000/svg">
<path d="M174.589 195.766L125.021 227.61L87 210.965L136.567 179.121L174.589 195.766Z" fill="#FEFFFF"/>
<path d="M137.695 121.611C148.898 121.611 157.993 130.73 157.993 141.933C157.993 145.439 157.135 148.748 155.443 151.788C151.864 158.235 145.074 162.231 137.695 162.231C134.631 162.231 131.689 161.569 128.944 160.27C121.908 156.911 117.373 149.729 117.373 141.933C117.373 130.73 126.492 121.611 137.695 121.611ZM137.695 102C115.632 102 97.7617 119.871 97.7617 141.933C97.7617 157.818 107.053 171.546 120.486 177.969C125.683 180.469 131.518 181.842 137.671 181.842C152.673 181.842 165.764 173.556 172.554 161.299C175.765 155.563 177.579 148.969 177.579 141.933C177.579 119.895 159.709 102 137.671 102H137.695Z" fill="#FEFFFF"/>
<path d="M188.954 195.031V119.16H204.864V195.055H188.954V195.031Z" fill="#FEFFFF"/>
<path d="M247.346 190.373H246.292C244.601 192.211 242.664 193.731 240.507 194.932C238.349 196.134 235.579 196.747 232.196 196.747C229.573 196.747 227.122 196.33 224.842 195.472C222.562 194.614 220.528 193.413 218.812 191.868C217.071 190.324 215.723 188.436 214.718 186.255C213.737 184.073 213.247 181.621 213.247 178.949C213.247 176.277 213.786 173.948 214.84 171.791C215.895 169.634 217.341 167.795 219.179 166.227C221.018 164.682 223.175 163.481 225.7 162.623C228.225 161.765 230.946 161.348 233.912 161.348C237.099 161.348 239.722 161.569 241.806 161.986C243.89 162.402 245.753 162.917 247.371 163.481V162.108C247.371 159.853 246.439 157.916 244.551 156.323C242.664 154.729 240.163 153.945 236.977 153.945C232.393 153.945 228.421 155.808 225.112 159.559L214.301 151.935C217.267 148.405 220.724 145.782 224.646 144.041C228.568 142.301 232.883 141.443 237.639 141.443C246.12 141.443 252.519 143.33 256.833 147.106C261.147 150.881 263.305 156.617 263.305 164.339V195.08H247.42V190.422L247.346 190.373ZM247.346 174.586C245.728 173.948 244.11 173.458 242.517 173.09C240.923 172.723 239.281 172.551 237.59 172.551C234.77 172.551 232.638 173.14 231.24 174.292C229.819 175.468 229.108 176.964 229.108 178.802C229.108 180.641 229.77 182.112 231.118 183.19C232.466 184.269 234.231 184.833 236.413 184.833C238.178 184.833 239.747 184.539 241.12 183.926C242.492 183.313 243.644 182.528 244.576 181.548C245.483 180.567 246.194 179.44 246.635 178.214C247.101 176.988 247.322 175.763 247.322 174.561L247.346 174.586Z" fill="#FEFFFF"/>
<path d="M295.148 196.722C291.544 196.722 288.358 196.306 285.612 195.448C282.866 194.59 280.464 193.486 278.454 192.114C276.444 190.741 274.752 189.147 273.429 187.333C272.08 185.544 271.051 183.705 270.364 181.867L284.68 175.836C285.661 178.239 287.034 179.979 288.823 181.082C290.588 182.185 292.697 182.725 295.172 182.725C297.281 182.725 298.923 182.382 300.1 181.72C301.276 181.058 301.84 180.175 301.84 179.121C301.84 177.92 301.276 176.989 300.149 176.302C299.021 175.64 297.207 175.003 294.756 174.439L287.647 172.968C285.955 172.625 284.215 172.037 282.45 171.277C280.685 170.492 279.067 169.487 277.571 168.212C276.076 166.938 274.875 165.442 273.968 163.702C273.036 161.961 272.595 159.976 272.595 157.72C272.595 155.245 273.134 153.014 274.237 150.979C275.341 148.969 276.836 147.253 278.748 145.831C280.66 144.409 282.915 143.331 285.538 142.546C288.161 141.762 291.005 141.37 294.118 141.37C299.487 141.37 304.12 142.301 307.993 144.189C311.867 146.052 314.808 149.19 316.794 153.578L303.115 159.191C302.183 157.353 300.909 156.005 299.242 155.171C297.575 154.313 295.908 153.896 294.216 153.896C292.378 153.896 290.907 154.215 289.755 154.852C288.627 155.49 288.063 156.274 288.063 157.181C288.063 158.162 288.652 158.971 289.804 159.559C290.981 160.172 292.402 160.662 294.094 161.103L302.159 163.016C307.454 164.29 311.425 166.349 314.024 169.169C316.647 171.988 317.946 175.322 317.946 179.121C317.946 181.45 317.407 183.681 316.304 185.789C315.2 187.922 313.656 189.785 311.646 191.403C309.636 193.021 307.233 194.32 304.439 195.276C301.644 196.232 298.555 196.698 295.172 196.698L295.148 196.722Z" fill="#FEFFFF"/>
<path d="M326.404 119.16H342.314V139.09L341.26 149.68H342.314C343.932 147.13 346.089 145.12 348.786 143.649C351.458 142.154 354.497 141.418 357.905 141.418C364.475 141.418 369.377 143.404 372.638 147.351C375.898 151.298 377.516 156.887 377.516 164.094V195.031H361.631V165.883C361.631 163.064 360.969 160.735 359.621 158.946C358.273 157.132 356.189 156.249 353.37 156.249C349.766 156.249 347.021 157.622 345.158 160.392C343.294 163.138 342.338 166.741 342.338 171.203V195.055H326.429V119.16H326.404Z" fill="#FEFFFF"/>
<path d="M390.631 119.16H417.449C423.529 119.16 428.995 120.091 433.874 121.905C438.752 123.744 442.87 126.318 446.278 129.652C449.661 132.986 452.259 136.957 454.073 141.639C455.887 146.297 456.77 151.469 456.77 157.107C456.77 162.746 455.863 167.918 454.073 172.576C452.284 177.233 449.685 181.229 446.278 184.563C442.895 187.897 438.752 190.471 433.874 192.31C428.995 194.148 423.529 195.055 417.449 195.055H390.631V119.16ZM416.591 179.342C420.685 179.342 424.215 178.802 427.181 177.699C430.147 176.596 432.599 175.076 434.535 173.091C436.472 171.105 437.918 168.752 438.825 166.03C439.757 163.309 440.198 160.319 440.198 157.083C440.198 153.847 439.732 150.856 438.825 148.135C437.918 145.414 436.472 143.061 434.535 141.075C432.599 139.09 430.147 137.57 427.181 136.467C424.215 135.363 420.685 134.824 416.591 134.824H407.153V179.342H416.591Z" fill="#FEFFFF"/>
<path d="M468.315 119.16H499.154C502.537 119.16 505.699 119.699 508.641 120.753C511.583 121.807 514.108 123.229 516.216 124.994C518.324 126.759 519.991 128.818 521.192 131.196C522.393 133.574 523.006 136.025 523.006 138.55C523.006 142.718 522.001 146.174 519.991 148.944C517.981 151.714 515.603 153.749 512.833 155.097V156.151C516.853 157.622 520.016 159.902 522.32 162.942C524.624 165.981 525.776 169.732 525.776 174.169C525.776 177.43 525.114 180.322 523.815 182.921C522.516 185.495 520.702 187.701 518.398 189.49C516.093 191.28 513.372 192.677 510.234 193.633C507.097 194.589 503.689 195.055 500.012 195.055H468.315V119.16ZM497.561 149.263C500.527 149.263 502.831 148.601 504.449 147.253C506.067 145.904 506.876 143.992 506.876 141.541C506.876 139.09 506.067 137.153 504.449 135.829C502.831 134.481 500.674 133.819 497.977 133.819H484.838V149.287H497.561V149.263ZM498.933 180.2C505.773 180.2 509.205 177.38 509.205 171.718C509.205 166.055 505.626 163.236 498.492 163.236H484.813V180.2H498.909H498.933Z" fill="#FEFFFF"/>
</svg>
